<svg xmlns="http://www.w3.org/2000/svg" viewBox="0 0 42 42"><path d="M39.55 20.06l-37.98-4c-.29-.02-.49.27-.33.5C3.66 20.35 9.4 23 16.1 23h22.66c.15 0 .29-.1.33-.23l.76-2.3c.06-.19-.08-.4-.3-.41zM41.89 13.52a.7.7 0 0 0-.5-.3l-10.5-1.3c-.38-.05-.73.2-.78.56-.06.36.21.68.6.73l1.19.15c.17.02.3.16.3.32v1.01c0 .2-.18.35-.39.32l-2.8-.28a.33.33 0 0 1-.31-.32v-2.85a.3.3 0 0 1 .06-.18l1.22-1.71c.14-.2.16-.45.05-.66a.7.7 0 0 0-.6-.36L14.73 8c-.23 0-.46.1-.6.27l-3.41 4.47c-.07.1-.2.15-.32.14l-9.63-.96a.73.73 0 0 0-.54.16.64.64 0 0 0-.23.48c0 .63.09 1.25.25 1.85.04.13.16.22.3.24l39.56 4.15c.16.02.32-.08.37-.23l1.49-4.5a.62.62 0 0 0-.08-.55zM20.2 9.9l-.55 3.56c-.02.17-.19.3-.37.28l-6.5-.64c-.27-.02-.4-.3-.25-.5l2.4-3.15a.36.36 0 0 1 .3-.13l4.64.2c.2.01.36.18.33.38zm7.59.47l-.43.6a.31.31 0 0 0-.06.18v3.04c0 .2-.18.35-.39.33l-5.55-.56c-.2-.02-.34-.19-.31-.37l.56-3.7c.03-.16.19-.28.37-.27l5.53.24c.28.02.43.3.28.51zm8.61 4.73c0 .2-.18.34-.39.32l-2.1-.22a.33.33 0 0 1-.31-.32v-.95c0-.2.19-.35.4-.32l2.1.26c.17.02.3.16.3.32v.91zm3.87-.33l-.26.79a.35.35 0 0 1-.38.23l-1.52-.16a.34.34 0 0 1-.31-.32v-.85c0-.2.19-.35.4-.33l1.78.22c.21.03.35.23.29.42z" fill="#011C40"/></svg>
