<?xml version="1.0" encoding="utf-8"?><svg viewBox="0 0 2000 2000" xmlns="http://www.w3.org/2000/svg" xmlns:xlink="http://www.w3.org/1999/xlink"><style>:root>svg{display:none}:root>svg:target{display:block}</style><svg viewBox="0 0 42 42" id="advantages-boat" xmlns="http://www.w3.org/2000/svg"><path d="M39.55 20.06l-37.98-4c-.29-.02-.49.27-.33.5C3.66 20.35 9.4 23 16.1 23h22.66c.15 0 .29-.1.33-.23l.76-2.3c.06-.19-.08-.4-.3-.41zm2.34-6.54a.7.7 0 00-.5-.3l-10.5-1.3c-.38-.05-.73.2-.78.56-.06.36.21.68.6.73l1.19.15c.17.02.3.16.3.32v1.01c0 .2-.18.35-.39.32l-2.8-.28a.33.33 0 01-.31-.32v-2.85a.3.3 0 01.06-.18l1.22-1.71c.14-.2.16-.45.05-.66a.7.7 0 00-.6-.36L14.73 8c-.23 0-.46.1-.6.27l-3.41 4.47c-.07.1-.2.15-.32.14l-9.63-.96a.73.73 0 00-.54.16.64.64 0 00-.23.48c0 .63.09 1.25.25 1.85.04.13.16.22.3.24l39.56 4.15c.16.02.32-.08.37-.23l1.49-4.5a.62.62 0 00-.08-.55zM20.2 9.9l-.55 3.56c-.02.17-.19.3-.37.28l-6.5-.64c-.27-.02-.4-.3-.25-.5l2.4-3.15a.36.36 0 01.3-.13l4.64.2c.2.01.36.18.33.38zm7.59.47l-.43.6a.31.31 0 00-.06.18v3.04c0 .2-.18.35-.39.33l-5.55-.56c-.2-.02-.34-.19-.31-.37l.56-3.7c.03-.16.19-.28.37-.27l5.53.24c.28.02.43.3.28.51zm8.61 4.73c0 .2-.18.34-.39.32l-2.1-.22a.33.33 0 01-.31-.32v-.95c0-.2.19-.35.4-.32l2.1.26c.17.02.3.16.3.32v.91zm3.87-.33l-.26.79a.35.35 0 01-.38.23l-1.52-.16a.34.34 0 01-.31-.32v-.85c0-.2.19-.35.4-.33l1.78.22c.21.03.35.23.29.42z" fill="#011C40"/></svg><svg viewBox="0 0 42 42" id="advantages-included" xmlns="http://www.w3.org/2000/svg"><path d="M28.75 7.22L26.44 5l-10.37 9.93 2.32 2.22 10.36-9.93zM35.7 5L18.38 21.57l-6.82-6.53-2.31 2.22L18.38 26 38 7.22 35.7 5zM0 17.26L9.13 26l2.32-2.22-9.14-8.74L0 17.26z" fill="#011C40"/></svg><svg viewBox="0 0 42 42" id="advantages-ship" xmlns="http://www.w3.org/2000/svg"><path d="M4.4 16.4l8.82-6.46a.6.6 0 01.65 0l8.86 6.46V8.69a1.9 1.9 0 00-1.84-2H6.24a1.9 1.9 0 00-1.83 2v7.7zM15.75 0h-4.37v5.35h4.37V0z" fill="#011C40"/><path d="M24.3 30.16l2.7-9.13-3.8-2.72-.26-.13L14 11.8v18.8h-.48l-.83-.05V11.81L0 21.03l2.8 9.09 1.6 1.87h9.12c1.3.02 3.6 0 3.6 0h5.7l1.48-1.83z" fill="#011C40"/></svg><svg viewBox="0 0 18 18" id="checkbox-request" xmlns="http://www.w3.org/2000/svg"><path d="M4 7.5L8.29 12 14 6" stroke="#101A56" fill="none"/></svg><svg viewBox="0 0 22 22" id="contacts-address" xmlns="http://www.w3.org/2000/svg"><path d="M15.36 15.56L9 22l-6.36-6.44A9.15 9.15 0 01.69 5.63 9.09 9.09 0 014 1.53a8.92 8.92 0 0113.31 4.1 9.22 9.22 0 01-1.95 9.93zM9 11.14a2.04 2.04 0 000-4.05 2.04 2.04 0 00-1.41 3.46c.37.37.88.59 1.41.59z" fill="#011C40"/></svg><svg viewBox="0 0 22 22" id="contacts-phone" xmlns="http://www.w3.org/2000/svg"><path d="M18 15.42v3.54a1 1 0 01-.93 1c-.44.02-.8.04-1.07.04A16 16 0 01.05 2.93a1 1 0 011-.93h3.53a.5.5 0 01.5.45A13.52 13.52 0 006.35 7c.1.2.03.44-.15.57L4.04 9.11a13.05 13.05 0 006.85 6.85l1.54-2.16a.46.46 0 01.57-.15 13.9 13.9 0 004.55 1.27.5.5 0 01.45.5z" fill="#011C40"/></svg><svg viewBox="0 0 12 20" id="social-facebook" xmlns="http://www.w3.org/2000/svg"><path d="M8.31 11.5h2.61l1.05-4H8.3v-2c0-1.03 0-2 2.09-2h1.57V.14A30.7 30.7 0 008.98 0C6.15 0 4.13 1.66 4.13 4.7v2.8H1v4h3.13V20h4.18v-8.5z" fill="#F9FBFD"/></svg><svg viewBox="0 0 21 20" id="social-instagram" xmlns="http://www.w3.org/2000/svg"><path d="M10.74 0c2.64 0 2.97.01 4.01.06 1.04.05 1.75.22 2.37.47a4.92 4.92 0 012.85 2.93c.24.63.4 1.35.45 2.42.05 1.06.06 1.4.06 4.12s0 3.06-.06 4.12a7.56 7.56 0 01-.45 2.43 4.9 4.9 0 01-1.12 1.77c-.49.51-1.08.9-1.73 1.16-.62.24-1.33.41-2.37.46-1.04.05-1.37.06-4.01.06-2.65 0-2.98-.01-4.02-.06a7.05 7.05 0 01-2.37-.46 4.92 4.92 0 01-2.85-2.93 7.53 7.53 0 01-.45-2.43C1 13.06.99 12.72.99 10s0-3.06.06-4.12c.05-1.07.2-1.8.45-2.43a4.9 4.9 0 011.12-1.77c.5-.51 1.08-.9 1.73-1.16A7.02 7.02 0 016.72.06C7.76.01 8.09 0 10.74 0zm0 5c-1.3 0-2.54.53-3.45 1.46a5.07 5.07 0 000 7.08 4.81 4.81 0 006.9 0 5.07 5.07 0 000-7.08A4.81 4.81 0 0010.73 5zm6.33-.25c0-.33-.13-.65-.36-.88a1.2 1.2 0 00-1.72 0 1.27 1.27 0 000 1.76 1.2 1.2 0 001.72 0c.23-.23.36-.55.36-.88zM10.74 7c.77 0 1.51.32 2.06.88a3.04 3.04 0 010 4.24 2.89 2.89 0 01-4.13 0 3.04 3.04 0 010-4.24A2.9 2.9 0 0110.74 7z" fill="#F9FBFD"/></svg><svg viewBox="0 0 20 20" id="social-twitter" xmlns="http://www.w3.org/2000/svg"><path d="M20 4.43c-.73.33-1.5.55-2.3.64a4.1 4.1 0 001.76-2.26c-.78.47-1.64.8-2.54 1a3.97 3.97 0 00-4.8-.82c-.78.42-1.4 1.1-1.77 1.92a4.2 4.2 0 00-.24 2.63 11.14 11.14 0 01-8.25-4.28A4.17 4.17 0 003.1 8.73a3.91 3.91 0 01-1.81-.51v.05c0 .95.32 1.86.9 2.6.59.73 1.4 1.23 2.3 1.42-.58.16-1.2.19-1.8.07a4.1 4.1 0 001.42 2.04c.67.5 1.48.8 2.32.8A7.96 7.96 0 01.5 16.9a11.11 11.11 0 006.13 1.85c7.35 0 11.38-6.25 11.38-11.67 0-.17 0-.35-.02-.53a8.24 8.24 0 002-2.12z" fill="#F9FBFD"/></svg><svg viewBox="0 0 2000 2000" id="sprite" xmlns="http://www.w3.org/2000/svg"/><svg viewBox="0 0 24 24" id="toggle-closed" xmlns="http://www.w3.org/2000/svg"><path d="M10 5l6.5 6.5M23 18l-6.5-6.5m0 0L23 5 10 18" stroke="#011C40" stroke-width="2"/></svg><svg viewBox="0 0 24 24" id="toggle-open" xmlns="http://www.w3.org/2000/svg"><path d="M0 5h24M0 11h24M0 17h24" stroke="#F9FBFD" stroke-width="2"/></svg></svg>